<svg width="50" height="50" fill="none" xmlns="http://www.w3.org/2000/svg"><path fill="#F6F6F6" d="M0 0h50v50H0z"/><path d="M45.77 38.188c0 .75-.166 1.52-.52 2.27a8.595 8.595 0 0 1-1.417 2.125c-1.02 1.125-2.145 1.938-3.416 2.459-1.25.52-2.604.791-4.063.791-2.125 0-4.396-.5-6.791-1.52-2.396-1.021-4.792-2.396-7.167-4.126a59.89 59.89 0 0 1-6.833-5.833 59.193 59.193 0 0 1-5.813-6.812c-1.708-2.375-3.083-4.75-4.083-7.105-1-2.375-1.5-4.645-1.5-6.812 0-1.417.25-2.77.75-4.02.5-1.272 1.291-2.438 2.396-3.48 1.333-1.312 2.791-1.958 4.333-1.958.583 0 1.167.125 1.687.375.542.25 1.021.625 1.396 1.166l4.834 6.813c.375.52.645 1 .833 1.458.187.438.292.875.292 1.271 0 .5-.146 1-.438 1.48-.27.478-.667.978-1.167 1.478L17.5 19.854c-.23.23-.333.5-.333.834 0 .166.02.312.062.479.063.166.125.291.167.416.375.688 1.02 1.584 1.937 2.667a71.312 71.312 0 0 0 3.021 3.292c1.125 1.104 2.209 2.125 3.313 3.062 1.083.917 1.979 1.542 2.687 1.917.104.041.23.104.375.166.167.063.334.084.521.084.354 0 .625-.125.854-.354l1.584-1.563c.52-.52 1.02-.916 1.5-1.166.479-.292.958-.438 1.479-.438.396 0 .812.083 1.27.27.459.188.938.46 1.459.813l6.896 4.896c.541.375.916.813 1.146 1.334.208.52.333 1.041.333 1.624Z" stroke="#087ABD" stroke-width="1.5" stroke-miterlimit="10"/><path d="M38.542 18.75c0-1.25-.98-3.167-2.438-4.73-1.333-1.437-3.104-2.562-4.854-2.562m14.583 7.292c0-8.063-6.52-14.583-14.583-14.583" stroke="#087ABD" stroke-width="1.5" stroke-linecap="round" stroke-linejoin="round"/></svg>