<svg xmlns="http://www.w3.org/2000/svg" width="62" height="87" version="1.0"><path d="m344.45 400.525.946 4.072c.028.13.118.571.243 1.34.142-.73.24-1.152.267-1.262l1.093-4.15h2.095l1.047 6.79h-1.667l-.442-4.026a43.34 43.34 0 0 1-.108-1.38c-.13.71-.24 1.192-.295 1.419l-1.045 3.986h-1.956l-.916-3.986a66.372 66.372 0 0 1-.256-1.397c-.088.76-.175 1.27-.217 1.546l-.54 3.837h-1.645l1.292-6.789M352.996 404.863c0 .945.38 1.455 1 1.455.612 0 1.033-.53 1.033-1.513 0-.935-.373-1.436-.975-1.436-.666 0-1.058.523-1.058 1.494zm3.72.01c0 1.545-1.085 2.57-2.827 2.57-1.596 0-2.577-.993-2.577-2.609 0-1.594 1.082-2.585 2.774-2.585 1.653 0 2.63.971 2.63 2.624M363.046 407.314h-1.654l.05-2.734v-.049c0-.6-.2-.898-.6-.898-.279 0-.593.149-.956.434l-.06 3.247h-1.653l.079-4.9h1.634l-.012.611c.68-.483 1.28-.728 1.822-.728.893 0 1.406.55 1.406 1.563v.058M366.854 400.613l-.028 1.802h1.268l-.02 1.23h-1.277l-.031 1.81v.028c0 .374.157.552.475.552.116 0 .322-.041.608-.117l.197 1.16c-.552.215-1.023.324-1.432.324-.948 0-1.468-.542-1.468-1.533v-.06l.046-2.164h-.765l.016-1.23h.769l.049-1.802M371.77 406.174c.573 0 1.073-.573 1.073-1.37 0-.785-.382-1.25-.93-1.25-.334 0-.637.17-.91.513l-.022 1.712c.22.256.512.395.788.395zm-.848 3.501h-1.634l.118-7.26h1.605l-.008.568c.38-.451.884-.676 1.484-.676 1.191 0 2.036 1.004 2.036 2.478 0 1.475-.982 2.61-2.234 2.61-.49 0-.957-.149-1.327-.454M378.462 403.152c-.571 0-.954.344-1.07.952l1.966.012c-.04-.61-.392-.964-.896-.964zm-1.093 1.87c.09.776.574 1.23 1.28 1.23.493 0 .955-.148 1.39-.444l.393.974c-.768.406-1.429.65-2.178.65-1.528 0-2.478-.994-2.478-2.578 0-.777.266-1.41.827-1.939a2.59 2.59 0 0 1 1.751-.679c1.428 0 2.334 1.004 2.334 2.718v.078M383.874 400.061l-.13 7.253h-1.62l.125-7.253M387.302 400.061l-.128 7.253h-1.625l.127-7.253M390.67 402.415l-.08 4.9h-1.64l.078-4.9h1.641zm.05-2.056-.02 1.387h-1.663l.022-1.387M394.887 403.152c-.571 0-.955.344-1.073.952l1.967.012c-.038-.61-.392-.964-.894-.964zm-1.094 1.87c.089.776.571 1.23 1.279 1.23.492 0 .955-.148 1.389-.444l.393.974c-.767.406-1.425.65-2.173.65-1.534 0-2.483-.994-2.483-2.578 0-.777.269-1.41.83-1.939.45-.42 1.08-.679 1.75-.679 1.428 0 2.329 1.004 2.329 2.718v.078M401.762 403.782l-.185-.01c-.545 0-.964.276-1.35.838l-.046 2.704h-1.648l.083-4.9h1.565l-.012.975c.384-.779.77-1.072 1.477-1.072l.225.017" style="fill:#1d4e9e;fill-opacity:1;fill-rule:nonzero;stroke:none" transform="translate(-340.856 -332.113)"/><path d="m343.634 412.62-.495 1.45h1.382l-.48-1.467c-.032-.104-.094-.352-.2-.738-.12.437-.184.69-.207.754zm1.105-1.658 2.002 5.417h-1.5l-.43-1.265h-1.98l-.463 1.265h-1.512l2.166-5.417M348.623 417.02c0 .34.285.568.739.568.52 0 .871-.307.871-.676 0-.338-.319-.525-.955-.525l-.19.007c-.307.173-.465.375-.465.625zm.355-3.32c0 .377.22.612.55.612.323 0 .545-.25.545-.699 0-.369-.222-.62-.514-.62-.348 0-.58.266-.58.708zm2.725-1.2v.76l-.701-.037c.102.178.157.346.157.503 0 .635-.618 1.198-1.48 1.198-.15 0-.385-.02-.7-.05l-.135.24c0 .135.113.21.322.243l1.087.175c.874.132 1.348.571 1.348 1.199 0 .872-.89 1.595-2.368 1.595-1.146 0-1.792-.433-1.792-1.029 0-.423.32-.771.95-1.054-.592-.115-.897-.366-.897-.65 0-.236.172-.425.525-.637l.465-.28c-.47-.213-.73-.574-.73-1.014 0-.695.682-1.311 1.71-1.311.355 0 .693.053 1.027.173M353.603 417.02c0 .34.28.568.74.568.518 0 .869-.307.869-.676 0-.338-.323-.525-.955-.525l-.191.007c-.307.173-.463.375-.463.625zm.354-3.32c0 .377.219.612.552.612.32 0 .537-.25.537-.699 0-.369-.218-.62-.51-.62-.344 0-.58.266-.58.708zm2.725-1.2v.76l-.699-.037c.103.178.156.346.156.503 0 .635-.62 1.198-1.483 1.198-.147 0-.387-.02-.7-.05l-.134.24c0 .135.109.21.325.243l1.082.175c.88.132 1.35.571 1.35 1.199 0 .872-.886 1.595-2.37 1.595-1.148 0-1.79-.433-1.79-1.029 0-.423.32-.771.948-1.054-.586-.115-.895-.366-.895-.65 0-.236.174-.425.526-.637l.461-.28c-.466-.213-.727-.574-.727-1.014 0-.695.682-1.311 1.712-1.311.353 0 .69.053 1.027.173M357.602 416.38h1.394v-5.787h-1.394v5.786zM361.427 414.424c0 .752.306 1.162.801 1.162.486 0 .823-.423.823-1.209 0-.746-.3-1.145-.777-1.145-.535 0-.847.415-.847 1.192zm2.966.007c0 1.233-.864 2.051-2.254 2.051-1.27 0-2.058-.796-2.058-2.083 0-1.27.866-2.065 2.213-2.065 1.322 0 2.1.78 2.1 2.097M370.714 412.378c.738 0 1.112.383 1.112 1.135v.025l-.028 2.841h-1.312l.023-2.285v-.048c0-.445-.12-.645-.47-.645-.213 0-.43.12-.702.34l-.036 2.638h-1.303l.021-2.348v-.032c0-.386-.165-.588-.46-.588-.213 0-.457.127-.722.378l-.034 2.59h-1.309l.054-3.908h1.289l-.016.502c.51-.387.935-.605 1.386-.605.471 0 .77.179 1.009.605.486-.402.986-.595 1.498-.595M374.226 414.548c.07.62.452.984 1.02.984.393 0 .762-.116 1.106-.356l.315.778c-.61.323-1.138.518-1.734.518-1.225 0-1.98-.794-1.98-2.058 0-.62.214-1.12.664-1.543a2.03 2.03 0 0 1 1.392-.544c1.143 0 1.86.802 1.86 2.167v.064l-2.643-.01zm.872-1.491c-.455 0-.76.275-.855.761l1.569.01c-.031-.486-.315-.771-.714-.771zm.895-2.535-1.185 1.39h-.541l.755-1.39M380.504 413.56l-.15-.008c-.43 0-.767.222-1.073.666l-.04 2.161h-1.31l.062-3.908h1.249l-.008.773c.304-.617.612-.853 1.175-.853l.182.013M382.417 415.137c0 .236.166.407.424.407.23 0 .47-.082.74-.248l.025-.748c-.785.018-1.19.23-1.19.589zm2.356-.213v.088c0 .354.048.525.245.525l.243-.093.117.73c-.352.172-.66.25-.935.25-.474 0-.729-.18-.794-.54-.47.368-.845.58-1.263.58-.667 0-1.162-.487-1.162-1.16 0-.905.773-1.32 2.365-1.358l.005-.152c0-.345-.19-.54-.565-.54-.29 0-.643.125-1.04.37l-.363-.685c.636-.376 1.253-.56 1.9-.56.887 0 1.27.373 1.27 1.252v.056M387.9 411.033l-.022 1.438h1.01l-.014.978h-1.023l-.022 1.445v.025c0 .298.127.438.375.438.094 0 .26-.033.488-.094l.155.929c-.438.17-.813.256-1.135.256-.761 0-1.178-.432-1.178-1.226v-.046l.04-1.727h-.612l.011-.978h.615l.04-1.438M391.143 412.47l-.064 3.91h-1.312l.066-3.91h1.31zm.041-1.642-.015 1.106h-1.33l.015-1.106M393.618 414.424c0 .752.305 1.162.798 1.162.488 0 .827-.423.827-1.209 0-.746-.297-1.145-.777-1.145-.534 0-.848.415-.848 1.192zm2.966.007c0 1.233-.862 2.051-2.25 2.051-1.272 0-2.06-.796-2.06-2.083 0-1.27.865-2.065 2.215-2.065 1.318 0 2.095.78 2.095 2.097M401.556 416.38h-1.32l.04-2.183v-.041c0-.479-.155-.714-.48-.714-.218 0-.47.117-.76.347l-.048 2.59h-1.32l.064-3.908h1.305l-.01.486c.54-.386 1.022-.579 1.451-.579.715 0 1.123.436 1.123 1.245v.049" style="fill:#f57215;fill-opacity:1;fill-rule:nonzero;stroke:none" transform="translate(-340.856 -332.113)"/><path d="M369.358 333.221c1.436-.352 2.568.606 2.77 1.41.256 1.46 1.235 6.542 1.646 7.85.408 1.306.308 3.018-1.438 3.42-1.744.402-2.518-.654-2.772-1.257-.256-.605-1.898-8.152-1.898-9.006 0-.856.358-2.165 1.692-2.417M386.5 332.267c1.596.447 1.916 2.2 1.334 3.119-.926 1.457-2.31 5.686-2.566 7.044-.256 1.357-1.385 2.718-3.076 2.165-1.696-.556-1.716-1.75-1.541-3.122.206-1.61 1.847-7.043 3.025-8.4 1.182-1.362 2.462-.907 2.825-.806M401.64 340.264c.718 1.06.31 2.67-.718 3.224-1.026.551-4.21 2.565-6.158 4.326-1.952 1.762-3.54-.052-3.54-.052s-1.49-1.76.102-3.219c1.588-1.46 6.363-5.184 7.957-5.383 1.588-.202 2.356 1.104 2.356 1.104M355.604 340.67c1.148-.9 2.567-.454 3.08.25.513.704 4.002 5.334 4.77 5.888.774.554 1.082 2.466-.05 3.269-1.13.806-2.003.856-3.078.051-1.078-.807-5.237-5.786-5.547-7.044-.305-1.258.31-2.012.825-2.415M345.596 352.241c.993-1.096 1.847-1.208 2.718-1.006.877.202 6.57 3.02 7.598 4.126 1.027 1.108 1.08 2.315.462 3.07-.616.754-1.848 1.259-2.923.655-1.303-.73-5.752-3.474-6.932-3.775-1.178-.302-1.745-2.164-.923-3.07M341.337 367.64c.247-1.634 1.795-2.013 2.462-1.863.668.148 1.797.453 3.747.25 1.95-.202 3.848-.25 4.412-.102.568.154 1.746.906 1.591 2.166-.153 1.257-.616 2.163-2.103 2.163-1.49 0-3.59.252-4.975.303-1.388.048-3.49-.152-4.21-.655-.72-.505-1.078-1.257-.924-2.263M355.143 378.855c.736 1.265-.054 2.62-.822 3.02-.772.405-2.257 1.108-3.438 1.765-1.181.654-1.796 1.309-2.569 1.707-.768.405-2.203.505-3.076-.752-.872-1.26-.054-2.766.975-3.472 1.025-.705 1.744-1.157 3.335-1.76 1.59-.606 1.95-.957 2.516-1.36.564-.403 2.257-.554 3.08.852M363.454 384.392c1.582.681 1.903 2.014.672 3.775-1.234 1.76-2.62 5.737-3.648 6.792-1.024 1.057-2.307 1.008-3.179.405-.875-.606-1.232-1.912-.515-3.071.718-1.155 3.44-6.087 3.75-6.844.305-.754 1.64-1.609 2.92-1.057M373.723 384.294c1.758-.2 2.821.853 2.924 2.515.102 1.66.874 6.035 1.079 6.992.205.957-.514 2.366-1.9 2.569-1.385.2-2.515-.706-2.773-1.86-.257-1.16-1.127-6.544-1.179-7.249-.053-.703.052-2.766 1.85-2.967" style="fill:#fab20a;fill-opacity:1;fill-rule:nonzero;stroke:none" transform="translate(-340.856 -332.113)"/><path d="M388.734 357.474c-1.078-.451-.848-1.51-1.386-2.64-1.067-2.241-4.772-3.171-7.236-3.171-3.619 0-8.623 1.433-13.244 5.962-4.616 4.527-8.8 12.392-5.234 17.888 2.697 4.15 10.24 2.19 14.244-.076 3.58-2.026 6.08-3.85 7.62-5.51.664-.716 1.154-.83 1.538-.679 1.232-3.169 4.003-8.755 5.7-11.7-.694.302-.927.378-2.002-.074zm3.23-2.113c1.004-1.66 1.31-2.187 1.85-3.094.538-.906 1.848-1.433 2.924-.83 1.079.603 1.551 1.744 1 2.567-5.849 8.751-11.711 24.067-13.007 28.906-.388 1.433-1.328 2.031-2.62 1.658-1.305-.374-1.845-1.509-1.538-2.566.305-1.057 1.463-4.829 1.92-5.889-3.922 2.947-8.156 5.457-14.394 5.74-8.312.376-16.163-6.264-9.467-19.925 5.371-10.956 15.627-14.34 21.634-14.264 5.466.067 10.543 2.037 11.698 7.697" style="fill:#f57215;fill-opacity:1;fill-rule:nonzero;stroke:none" transform="translate(-340.856 -332.113)"/><path d="M366.588 360.493c1.23 0 1.383.353 1.436.654.923-1.811 2.154-3.471 4.005-3.12 1.848.353 3.077 3.223 3.334 4.276.974-1.91 3.829-6.226 6.314-5.382 1.181.402 2.101 2.012 2.411 3.322.309 1.307.665 4.325.665 5.485 0 1.154-.975 1.811-1.534 1.757-.568-.048-1.85 0-2.108-1.708-.254-1.712-.305-4.177-.665-4.68-2.363 2.564-3.025 5.905-3.697 9.108-.412 1.958-1.796 1.76-1.796 1.76s-1.795.198-2.002-1.76c-.204-1.963-.36-6.24-1.59-7.598-1.95 2.917-2.104 5.281-2.517 6.993-.41 1.714-.356 2.768-2.05 2.717-2.213-.066-1.797-2.163-1.797-3.22-.309-1.612-.361-4.93-.156-6.59.205-1.66 1.386-1.964 1.747-2.014" style="fill:#1d4e9e;fill-opacity:1;fill-rule:nonzero;stroke:none" transform="translate(-340.856 -332.113)"/></svg>