<svg width="21" height="16" fill="none" xmlns="http://www.w3.org/2000/svg"><g clip-path="url(#a)"><path d="M.71.794h20v15h-20v-15Z" fill="#012169"/><path d="m3.053.794 7.625 5.656L18.272.794h2.438v1.938l-7.5 5.593 7.5 5.563v1.906h-2.5l-7.5-5.594-7.47 5.594H.71V13.92l7.468-5.562L.71 2.794v-2h2.343Z" fill="#fff"/><path d="m13.96 9.575 6.75 4.97v1.25l-8.47-6.22h1.72Zm-5.75.625.187 1.094-6 4.5H.71l7.5-5.594ZM20.71.794v.094l-7.782 5.875.063-1.375L19.147.794h1.563Zm-20 0 7.468 5.5H6.303L.71 2.107V.794Z" fill="#C8102E"/><path d="M8.24.794v15h5v-15h-5Zm-7.53 5v5h20v-5h-20Z" fill="#fff"/><path d="M.71 6.825v3h20v-3h-20ZM9.24.795v15h3v-15h-3Z" fill="#C8102E"/></g><defs><clipPath id="a"><path fill="#fff" transform="translate(.71 .794)" d="M0 0h20v15H0z"/></clipPath></defs></svg>